<?xml version="1.0" standalone="no"?>
<!DOCTYPE svg PUBLIC "-//W3C//DTD SVG 20010904//EN"
 "http://www.w3.org/TR/2001/REC-SVG-20010904/DTD/svg10.dtd">
<svg version="1.0" xmlns="http://www.w3.org/2000/svg"
 width="500.000000pt" height="500.000000pt" viewBox="0 0 500.000000 500.000000"
 preserveAspectRatio="xMidYMid meet">

<g transform="translate(0.000000,500.000000) scale(0.100000,-0.100000)"
fill="#000000" stroke="none">
<path d="M2240 4579 c-25 -5 -74 -14 -110 -20 -437 -74 -880 -371 -1147 -770
-54 -80 -137 -238 -173 -329 -156 -392 -168 -846 -34 -1253 20 -59 40 -105 45
-102 5 4 6 -1 3 -9 -9 -23 101 -237 189 -370 223 -333 629 -625 1013 -726 414
-109 784 -85 1163 77 103 44 287 144 319 173 9 9 33 26 52 40 209 145 406 372
539 621 237 447 284 966 130 1444 -35 108 -34 105 -95 230 -88 179 -200 338
-336 476 -105 108 -150 145 -268 224 -209 139 -411 222 -670 273 -30 6 -79 15
-108 21 -63 13 -447 13 -512 0z m468 -110 c387 -42 716 -197 985 -462 128
-126 158 -162 247 -297 119 -182 202 -388 240 -595 28 -149 40 -342 30 -455
-28 -309 -121 -586 -270 -811 -23 -34 -39 -68 -36 -75 3 -7 0 -11 -7 -9 -7 3
-28 -19 -47 -48 -65 -97 -270 -291 -393 -371 -170 -111 -394 -214 -537 -247
-229 -52 -372 -65 -538 -50 -183 17 -270 35 -417 83 -115 38 -185 68 -185 79
0 5 24 26 53 47 123 91 246 129 381 117 45 -3 163 -8 263 -11 180 -4 187 -3
313 32 38 11 148 71 205 112 198 143 397 357 475 512 50 100 107 277 155 475
76 322 79 334 94 410 36 184 35 173 17 200 -21 32 -56 33 -100 3 -55 -38 -87
-82 -151 -207 -24 -48 -31 -62 -110 -246 -26 -60 -58 -132 -72 -160 -13 -27
-19 -51 -14 -53 28 -9 62 -48 72 -82 10 -32 9 -48 -5 -91 -63 -192 -431 -509
-592 -509 -42 0 -37 13 14 37 159 73 419 301 496 435 34 60 39 121 10 143 -22
16 -66 19 -92 6 -109 -55 -113 -57 -277 -175 -96 -69 -214 -127 -310 -152 -87
-23 -363 -26 -500 -5 -130 20 -291 25 -345 10 -25 -6 -83 -30 -129 -52 -69
-32 -100 -56 -176 -131 -51 -50 -120 -126 -155 -168 -34 -43 -66 -78 -70 -78
-13 0 -81 87 -147 185 -110 165 -199 365 -241 545 -38 159 -42 192 -48 348
-12 322 32 539 166 819 180 376 485 663 885 834 222 95 579 140 863 108z"/>
<path d="M2654 4108 c-71 -48 -99 -104 -97 -194 0 -52 7 -82 23 -114 50 -98
139 -196 265 -290 33 -25 74 -58 92 -74 68 -61 67 -60 117 -17 24 21 73 60
108 86 73 55 211 194 243 245 27 43 55 125 55 160 0 52 -31 130 -65 164 -50
50 -89 66 -162 66 -78 0 -145 -30 -195 -89 l-34 -40 -45 45 c-64 66 -104 84
-187 84 -62 0 -75 -4 -118 -32z"/>
<path d="M1994 3881 c-27 -12 -53 -36 -75 -67 -29 -43 -33 -56 -33 -114 0 -51
5 -74 23 -103 74 -119 220 -139 317 -42 158 159 -27 419 -232 326z"/>
<path d="M1983 3416 c-46 -34 -47 -67 -8 -303 49 -303 60 -338 109 -366 14 -8
96 -14 241 -17 l219 -5 34 -60 c19 -33 43 -75 53 -92 34 -59 61 -107 87 -153
36 -66 61 -90 94 -90 28 0 173 76 216 114 32 28 30 78 -4 105 -35 27 -49 26
-113 -5 -45 -23 -55 -25 -66 -13 -8 8 -48 82 -91 164 -109 214 -88 199 -297
203 -94 1 -182 5 -193 7 -17 4 -23 15 -28 52 -4 27 -9 56 -12 66 -5 16 8 17
174 17 176 0 179 0 206 25 40 37 34 85 -15 110 -21 12 -70 15 -208 15 -163 0
-180 2 -184 18 -3 9 -13 52 -22 94 -22 104 -37 120 -111 125 -43 3 -65 0 -81
-11z"/>
<path d="M1830 3243 c-19 -10 -37 -20 -40 -23 -3 -3 -23 -18 -44 -34 -130 -98
-215 -250 -232 -416 -24 -243 130 -496 356 -584 69 -27 77 -29 198 -33 94 -4
124 -1 180 16 138 42 277 154 335 270 l26 52 -42 70 c-23 38 -43 63 -45 57
-74 -282 -376 -427 -632 -304 -101 47 -199 159 -233 263 -22 67 -23 221 -2
281 21 59 49 112 74 141 11 13 18 28 14 34 -3 5 -2 7 3 4 5 -3 27 10 48 28 22
18 54 42 73 52 19 10 33 25 33 36 0 27 -21 107 -29 107 -3 0 -22 -8 -41 -17z"/>
</g>
</svg>
